<?xml version="1.0" encoding="UTF-8"?><svg id="Calque_1" xmlns="http://www.w3.org/2000/svg" viewBox="0 0 595.74 595.92"><defs><style>.cls-1{fill:#fff;}</style></defs><path d="m520.63,397.43c13.85-30.93,21.14-64.72,21.14-99.63,0-65.16-25.38-126.42-71.45-172.5-46.08-46.08-107.34-71.45-172.5-71.45s-126.42,25.38-172.5,71.45c-46.08,46.08-71.45,107.34-71.45,172.5s25.38,126.42,71.45,172.5c46.08,46.08,107.34,71.45,172.5,71.45,34.83,0,68.54-7.26,99.42-21.04,15.89,13.8,35.98,21.35,57.23,21.35,23.36,0,45.33-9.1,61.85-25.62,32.59-32.59,34.01-84.69,4.32-119.01Z"/><path class="cls-1" d="m478.22,430.84l-23.11-23.11s0,0,0,0l-1.29-1.29c21.48-30.79,34.09-68.23,34.09-108.62,0-104.98-85.11-190.09-190.09-190.09s-190.09,85.11-190.09,190.09,85.11,190.09,190.09,190.09c40.32,0,77.69-12.56,108.45-33.97l24.43,24.43c13.12,13.12,34.4,13.12,47.53,0h0c13.12-13.12,13.12-34.4,0-47.53Zm-252.91-133.03c0-40.04,32.46-72.5,72.5-72.5s72.5,32.46,72.5,72.5c0,7.59-1.17,14.91-3.34,21.79l-21.73-21.73c-13.12-13.12-34.4-13.12-47.53,0h0c-13.12,13.12-13.12,34.4,0,47.53l21.65,21.65c-6.81,2.12-14.06,3.26-21.57,3.26-40.04,0-72.5-32.46-72.5-72.5Z"/></svg>